<?xml version="1.0" standalone="no"?><!DOCTYPE svg PUBLIC "-//W3C//DTD SVG 1.1//EN" "http://www.w3.org/Graphics/SVG/1.1/DTD/svg11.dtd"><svg t="1728972832001" class="icon" viewBox="0 0 1024 1024" version="1.1" xmlns="http://www.w3.org/2000/svg" p-id="4508" xmlns:xlink="http://www.w3.org/1999/xlink" width="200" height="200"><path d="M656 107.2v61.6H403.2v-61.6H656m0-33.6H403.2c-18.4 0-34.4 15.2-34.4 34.4v61.6c0 18.4 15.2 34.4 34.4 34.4H656c18.4 0 34.4-15.2 34.4-34.4v-61.6c-0.8-19.2-16-34.4-34.4-34.4z" fill="#515151" p-id="4509"></path><path d="M656 763.2v61.6H403.2v-61.6H656m0-34.4H403.2c-18.4 0-34.4 15.2-34.4 34.4v61.6c0 18.4 15.2 34.4 34.4 34.4H656c18.4 0 34.4-15.2 34.4-34.4v-61.6c-0.8-19.2-16-34.4-34.4-34.4z" fill="#515151" p-id="4510"></path><path d="M644.8 192c37.6 0 73.6 7.2 108 22.4 33.6 14.4 63.2 34.4 88.8 60 25.6 25.6 45.6 56 60 88.8 14.4 34.4 22.4 71.2 22.4 108 0 37.6-7.2 73.6-22.4 108-14.4 33.6-34.4 63.2-60 88.8-25.6 25.6-56 45.6-88.8 60-34.4 14.4-71.2 22.4-108 22.4H414.4c-37.6 0-73.6-7.2-108-22.4-33.6-14.4-63.2-34.4-88.8-60-25.6-25.6-45.6-56-60-88.8-14.4-34.4-22.4-70.4-22.4-108s7.2-73.6 22.4-108c14.4-33.6 34.4-63.2 60-88.8 25.6-25.6 56-45.6 88.8-60C340.8 200 377.6 192 414.4 192h230.4m0-34.4H414.4c-172 0-312.8 140.8-312.8 312.8C101.6 643.2 242.4 784 414.4 784h230.4c172 0 312.8-140.8 312.8-312.8s-140.8-313.6-312.8-313.6z m-114.4-60c-9.6 0-16.8-8-16.8-16.8V28.8c0-9.6 8-16.8 16.8-16.8s16.8 8 16.8 16.8V80c0 9.6-8 17.6-16.8 17.6zM414.4 988c-9.6 0-16.8-8-16.8-16.8v-78.4c0-9.6 8-16.8 16.8-16.8s16.8 8 16.8 16.8v78.4c0.8 9.6-7.2 16.8-16.8 16.8z m77.6 0c-9.6 0-16.8-8-16.8-16.8v-78.4c0-9.6 8-16.8 16.8-16.8s16.8 8 16.8 16.8v78.4c0 9.6-7.2 16.8-16.8 16.8z m77.6 0c-9.6 0-16.8-8-16.8-16.8v-78.4c0-9.6 8-16.8 16.8-16.8s16.8 8 16.8 16.8v78.4c0 9.6-7.2 16.8-16.8 16.8z m77.6 0c-9.6 0-16.8-8-16.8-16.8v-78.4c0-9.6 8-16.8 16.8-16.8s16.8 8 16.8 16.8v78.4c0 9.6-8 16.8-16.8 16.8z" fill="#515151" p-id="4511"></path><path d="M493.6 781.6c-5.6 0-10.4-2.4-13.6-7.2l-5.6-6.4c-64-87.2-96.8-191.2-96-299.2 0.8-108.8 36-212 100.8-297.6 5.6-7.2 16-8.8 24-3.2 7.2 5.6 8.8 16 3.2 24-60.8 80-92.8 176-94.4 277.6-0.8 101.6 30.4 197.6 89.6 279.2l4.8 6.4c5.6 8 4 18.4-4 24-2.4 1.6-5.6 2.4-8.8 2.4z m74.4 0c-3.2 0-7.2-0.8-10.4-3.2-8-5.6-9.6-16-4-24l4.8-6.4C617.6 666.4 648.8 570.4 648 468.8s-33.6-197.6-94.4-277.6c-5.6-7.2-4-18.4 3.2-24s18.4-4 24 3.2c64.8 86.4 100 188.8 100.8 297.6 0.8 108.8-32 212-96 299.2l-4.8 6.4c-2.4 5.6-7.2 8-12.8 8z" fill="#515151" p-id="4512"></path><path d="M380.8 783.2c-4 0-8-1.6-11.2-4.8l-52.8-48c-80-69.6-123.2-170.4-119.2-275.2 3.2-104.8 53.6-202.4 136.8-268.8l36-28c7.2-5.6 18.4-4.8 24 3.2 5.6 7.2 4.8 18.4-3.2 24l-36 28C279.2 272.8 234.4 361.6 231.2 456c-3.2 94.4 36 185.6 107.2 249.6l52.8 48c7.2 6.4 8 16.8 1.6 24-3.2 4-8 5.6-12 5.6z m297.6 0c-4.8 0-9.6-1.6-12.8-5.6-6.4-7.2-5.6-17.6 1.6-24l52.8-48c71.2-64 110.4-155.2 107.2-249.6-3.2-95.2-48-183.2-124-242.4l-36-28c-7.2-5.6-8.8-16.8-3.2-24s16.8-8.8 24-3.2l36 28c84 65.6 133.6 163.2 136.8 268.8 3.2 104.8-40 205.6-118.4 276l-52.8 48c-3.2 2.4-7.2 4-11.2 4zM111.2 91.2c-9.6 0-16.8-8-16.8-16.8V56.8c0-9.6 8-16.8 16.8-16.8S128 48 128 56.8v16.8c0 10.4-8 17.6-16.8 17.6z m0 80.8c-9.6 0-16.8-8-16.8-16.8v-16.8c0-9.6 8-16.8 16.8-16.8s16.8 8 16.8 16.8v16.8c0 9.6-8 16.8-16.8 16.8z m-32.8-45.6H61.6c-9.6 0-16.8-8-16.8-16.8s8-16.8 16.8-16.8h16.8c9.6 0 16.8 8 16.8 16.8s-7.2 16.8-16.8 16.8z m82.4-1.6H144c-9.6 0-16.8-8-16.8-16.8s8-16.8 16.8-16.8h16.8c9.6 0 16.8 8 16.8 16.8s-8 16.8-16.8 16.8z m711.2 684.8c-9.6 0-16.8-8-16.8-16.8V776c0-9.6 8-16.8 16.8-16.8s16.8 8 16.8 16.8v16.8c0 9.6-7.2 16.8-16.8 16.8zM872 891.2c-9.6 0-16.8-8-16.8-16.8v-16.8c0-9.6 8-16.8 16.8-16.8s16.8 8 16.8 16.8v16.8c0 8.8-7.2 16.8-16.8 16.8zM840 844.8h-16.8c-9.6 0-16.8-8-16.8-16.8s8-16.8 16.8-16.8h16.8c9.6 0 16.8 8 16.8 16.8s-8 16.8-16.8 16.8zM921.6 843.2h-16.8c-9.6 0-16.8-8-16.8-16.8s8-16.8 16.8-16.8h16.8c9.6 0 16.8 8 16.8 16.8s-7.2 16.8-16.8 16.8z" fill="#515151" p-id="4513"></path></svg>