<?xml version="1.0" standalone="no"?><!DOCTYPE svg PUBLIC "-//W3C//DTD SVG 1.1//EN" "http://www.w3.org/Graphics/SVG/1.1/DTD/svg11.dtd"><svg t="1728741145496" class="icon" viewBox="0 0 1024 1024" version="1.1" xmlns="http://www.w3.org/2000/svg" p-id="5421" xmlns:xlink="http://www.w3.org/1999/xlink" width="200" height="200"><path d="M512 512m-512 0a512 512 0 1 0 1024 0 512 512 0 1 0-1024 0Z" fill="#F9BA17" p-id="5422"></path><path d="M512 771.00032c-101.79584 0-184.32-82.52416-184.32-184.32C327.68 518.81984 392.11008 405.17632 520.98048 245.76 637.88032 405.17632 696.32 518.81984 696.32 586.68032c0 101.79584-82.52416 184.32-184.32 184.32zM400.82432 510.47424c-23.10144 83.47648 0.38912 155.06432 69.4272 212.26496l18.18624-21.9648c-60.50816-50.1248-80.20992-110.1824-60.14976-182.70208l-27.46368-7.59808z" fill="#FFFFFF" p-id="5423"></path></svg>