<?xml version="1.0" standalone="no"?><!DOCTYPE svg PUBLIC "-//W3C//DTD SVG 1.1//EN" "http://www.w3.org/Graphics/SVG/1.1/DTD/svg11.dtd"><svg t="1728740533395" class="icon" viewBox="0 0 1024 1024" version="1.1" xmlns="http://www.w3.org/2000/svg" p-id="6072" xmlns:xlink="http://www.w3.org/1999/xlink" width="200" height="200"><path d="M535.893333 622.08c17.066667-16.520533 37.256533-24.746667 60.586667-24.746667 23.313067 0 43.2128 8.226133 59.733333 24.746667 17.066667 17.066667 25.6 37.256533 25.6 60.586667 0 23.313067-8.533333 43.229867-25.6 59.733333-16.520533 17.066667-36.420267 25.6-59.733333 25.6-23.330133 0-43.52-8.533333-60.586667-25.6-16.503467-16.503467-24.746667-36.420267-24.746666-59.733333 0-23.330133 8.260267-43.52 24.746666-60.586667z" p-id="6073" fill="#c218c6"></path><path d="M512 955.733333c-121.890133 0-227.584-43.8784-314.146133-130.440533C111.872 739.2768 68.266667 633.890133 68.266667 512c0-121.856 43.588267-227.549867 129.536-314.112C284.450133 111.854933 390.126933 68.266667 512 68.266667c121.9072 0 227.293867 43.605333 313.2928 129.5872a550.724267 550.724267 0 0 1 25.4976 27.2896l-12.817067 11.229866 12.9536-11.1104a439.005867 439.005867 0 0 1 69.239467 109.2096L904.533333 341.333333l15.650134-6.8096C943.7696 388.778667 955.733333 448.494933 955.733333 512c0 121.924267-43.895467 227.328-130.474666 313.326933C739.328 911.837867 633.924267 955.733333 512 955.733333z m0-853.333333c-112.5376 0-210.1248 40.2432-290.065067 119.620267C142.6432 301.8752 102.4 399.479467 102.4 512c0 112.503467 40.226133 209.783467 119.586133 289.160533C301.909333 881.083733 399.496533 921.6 512 921.6c112.4864 0 209.7664-40.4992 289.1264-120.405333C881.1008 721.7664 921.6 624.4864 921.6 512c0-58.794667-11.008-113.92-32.7168-163.84a404.821333 404.821333 0 0 0-63.7952-100.590933 538.129067 538.129067 0 0 0-23.9104-25.582934C721.800533 142.626133 624.520533 102.4 512 102.4z" p-id="6074" fill="#c218c6"></path><path d="M596.48 802.133333c-32.597333 0-61.098667-11.9808-84.718933-35.601066-23.057067-23.04-34.747733-51.268267-34.747734-83.8656 0-32.3584 11.554133-60.7232 34.338134-84.292267l0.8192-0.8192C535.722667 574.7712 564.087467 563.2 596.48 563.2c32.597333 0 60.808533 11.690667 83.8656 34.747733C703.965867 621.568 715.946667 650.069333 715.946667 682.666667c0 32.3584-12.4416 61.508267-35.9936 84.2752C657.954133 789.691733 628.821333 802.133333 596.48 802.133333z m-36.437333-155.921066c-10.069333 10.5984-14.762667 22.186667-14.762667 36.4544 0 14.2336 4.676267 25.531733 14.7456 35.584 10.6496 10.666667 22.237867 15.616 36.4544 15.616 13.9776 0 25.173333-4.829867 35.191467-15.2064 11.1616-10.837333 16.008533-22.016 16.008533-35.9936 0-14.216533-4.949333-25.8048-15.598933-36.4544-10.069333-10.069333-21.384533-14.7456-35.601067-14.7456-14.2848 0-25.856 4.676267-36.437333 14.7456zM937.813333 375.466667h-170.666666a34.133333 34.133333 0 0 1-28.3136-53.230934l70.741333-104.823466L874.325333 119.466667h-107.178666a34.133333 34.133333 0 0 1 0-68.266667h170.666666a34.133333 34.133333 0 0 1 28.4672 52.957867l-99.84 151.022933-0.0512 0.068267c0.017067 0.034133 0 0.034133-0.017066 0.034133l-0.1536 0.221867L831.351467 307.2h106.461866a34.133333 34.133333 0 0 1 0 68.266667zM640 443.733333c-16.5888 0-30.702933-5.700267-41.9328-16.964266C586.257067 414.976 580.266667 400.861867 580.266667 384.853333a17.066667 17.066667 0 1 1 34.133333 0c0 6.8096 2.491733 12.475733 7.799467 17.800534 4.727467 4.744533 10.3936 6.946133 17.800533 6.946133 7.6288 0 13.704533-2.338133 19.063467-7.355733A24.746667 24.746667 0 0 0 665.6 384.853333a17.066667 17.066667 0 1 1 34.133333 0c0 15.8208-5.563733 29.781333-16.554666 41.5232-12.561067 11.793067-26.811733 17.3568-43.178667 17.3568z m-256 0c-16.5888 0-30.702933-5.700267-41.949867-16.964266C330.257067 414.976 324.266667 400.861867 324.266667 384.853333a17.066667 17.066667 0 0 1 34.133333 0c0 6.8096 2.474667 12.475733 7.799467 17.800534 4.744533 4.744533 10.3936 6.946133 17.800533 6.946133 7.645867 0 13.704533-2.338133 19.063467-7.355733 4.1984-4.539733 6.536533-10.3424 6.536533-17.390934a17.066667 17.066667 0 0 1 34.133333 0 59.050667 59.050667 0 0 1-16.554666 41.5232C414.6176 438.1696 400.366933 443.733333 384 443.733333z" p-id="6075" fill="#c218c6"></path></svg>