<?xml version="1.0" standalone="no"?><!DOCTYPE svg PUBLIC "-//W3C//DTD SVG 1.1//EN" "http://www.w3.org/Graphics/SVG/1.1/DTD/svg11.dtd"><svg t="1728741530215" class="icon" viewBox="0 0 1024 1024" version="1.1" xmlns="http://www.w3.org/2000/svg" p-id="7309" xmlns:xlink="http://www.w3.org/1999/xlink" width="200" height="200"><path d="M564.416 59.264a64 64 0 0 0-104.832 0C371.2 185.344 165.568 494.784 165.568 642.816A348.608 348.608 0 0 0 511.616 992c192.256-1.152 347.52-157.888 346.816-349.44 0-147.712-205.632-457.088-294.016-583.296zM512 928a284.48 284.48 0 0 1-282.432-285.184C229.568 554.112 337.792 344.576 512 96c174.208 248.64 282.432 458.048 282.432 546.816A284.8 284.8 0 0 1 512 928z" p-id="7310" fill="#d81e06"></path><path d="M422.528 480.256c-39.04 0-73.216 15.424-98.944 44.672-24.32 27.584-36.672 66.304-36.672 115.072 0 48.704 12.288 87.424 36.608 115.136 25.728 29.376 59.968 44.864 99.008 44.864 38.912 0 73.088-15.616 98.88-45.12 24.192-27.712 36.48-66.944 36.48-116.48 0-47.488-12.416-85.696-36.8-113.408a128.128 128.128 0 0 0-98.56-44.736z m57.856 238.848a73.6 73.6 0 0 1-57.856 26.496c-23.36 0-42.752-8.768-58.112-26.304-15.36-17.6-23.04-44.032-23.04-79.296 0-35.264 7.68-61.696 23.04-79.168s34.752-26.176 58.112-26.176c23.04 0 42.24 8.768 57.728 26.368 15.488 17.536 23.232 43.328 23.232 77.44 0 36.16-7.68 63.04-23.04 80.64zM718.208 752.384a30.464 30.464 0 0 0-19.456-5.504h-54.912c4.864-5.44 12.992-12.8 24.32-21.952 13.12-10.752 22.528-18.688 28.096-23.68 6.08-5.504 11.968-12.992 17.536-22.208a61.696 61.696 0 0 0-7.36-73.728 58.112 58.112 0 0 0-18.112-12.928 89.536 89.536 0 0 0-36.544-6.784 85.12 85.12 0 0 0-31.232 5.312c-8.96 3.648-16.512 8.384-22.4 14.272a60.608 60.608 0 0 0-18.048 40.96c0 6.72 2.112 12.16 6.208 16.256a21.184 21.184 0 0 0 15.36 6.144c8.64 0 13.568-3.84 16.192-7.04a49.92 49.92 0 0 0 7.936-15.36 57.024 57.024 0 0 1 3.712-9.216 24.128 24.128 0 0 1 21.44-12.096c4.352 0 8.32 0.96 11.904 2.88 3.584 1.92 6.336 4.48 8.32 7.872a22.08 22.08 0 0 1 3.072 11.584 30.592 30.592 0 0 1-3.072 12.992 53.824 53.824 0 0 1-9.728 13.952c-4.48 4.8-10.112 9.6-16.64 14.208a208.448 208.448 0 0 0-20.672 17.472 768 768 0 0 0-31.552 31.104 51.264 51.264 0 0 0-8.896 13.952 38.208 38.208 0 0 0-4.032 15.04c0 6.656 2.496 12.48 7.296 17.28a26.88 26.88 0 0 0 19.776 7.232h95.808c7.552 0 13.44-2.176 17.472-6.4a21.312 21.312 0 0 0 5.952-15.232 19.968 19.968 0 0 0-7.744-16.384z" p-id="7311" fill="#d81e06"></path></svg>