<?xml version="1.0" standalone="no"?><!DOCTYPE svg PUBLIC "-//W3C//DTD SVG 1.1//EN" "http://www.w3.org/Graphics/SVG/1.1/DTD/svg11.dtd"><svg t="1729081007518" class="icon" viewBox="0 0 1024 1024" version="1.1" xmlns="http://www.w3.org/2000/svg" p-id="4379" xmlns:xlink="http://www.w3.org/1999/xlink" width="128" height="128"><path d="M580.13445 325.318006a168.832688 168.832688 0 0 0-125.009122-55.531176H360.248907a168.896664 168.896664 0 0 0-125.073098 55.531176L82.337124 494.53455a21.367987 21.367987 0 0 0 0.767712 29.428964l52.012495 52.012495a20.472323 20.472323 0 0 0 15.86605 6.205673 21.240035 21.240035 0 0 0 15.354242-7.293265l109.65488-125.392978v552.752718c0 11.835562 9.596401 21.367987 21.367987 21.367987h73.57241c11.771586 0 21.367987-9.596401 21.367987-21.367987v-321.991253h30.836437v321.991253c0 11.835562 9.596401 21.367987 21.367987 21.367987h73.57241c11.771586 0 21.304011-9.596401 21.240035-21.367987v-552.752718l109.718855 125.392978a21.495939 21.495939 0 0 0 31.220293 1.087592l51.948519-52.012495a21.304011 21.304011 0 0 0 0.767712-29.428964L580.13445 325.318006zM666.182182 529.593402l-132.110459-150.983381a21.304011 21.304011 0 0 0-37.425965 14.074722v588.195427h-30.900413V658.952893a21.367987 21.367987 0 0 0-21.304011-21.367987h-73.57241a21.367987 21.367987 0 0 0-21.367987 21.367987v321.991253h-30.836436V392.684743a21.367987 21.367987 0 0 0-37.425965-14.074722L149.256029 529.593402l-21.559915-21.495939 139.275772-154.182181a126.032738 126.032738 0 0 1 93.340997-41.456454H455.061352c35.506685 0 69.541922 15.162314 93.340997 41.456454l139.211796 154.182181-21.495939 21.495939zM925.860802 0h-98.139198a21.367987 21.367987 0 1 0 0 42.735974h76.771211v202.484068h-52.204423a21.367987 21.367987 0 1 0 0 42.735974h52.204423v202.484069h-52.204423a21.304011 21.304011 0 1 0 0 42.735974h52.204423v202.484068h-52.204423a21.304011 21.304011 0 1 0 0 42.735974h52.204423v202.484069h-76.771211a21.367987 21.367987 0 1 0 0 42.735974h98.139198c11.771586 0 21.304011-9.596401 21.304011-21.367987V21.367987A21.304011 21.304011 0 0 0 925.924778 0z m-518.205673 238.886418a119.635137 119.635137 0 0 0 119.507185-119.443209A119.635137 119.635137 0 0 0 407.719105 0a119.635137 119.635137 0 0 0-119.507184 119.443209A119.635137 119.635137 0 0 0 407.719105 238.886418z m0-196.150444a76.771211 76.771211 0 0 1 0 153.478446 76.771211 76.771211 0 0 1 0-153.478446z" fill="#bd7828" p-id="4380"></path></svg>